# xmcd
#
# Track frame offsets:
#	150
#	16590
#	35286
#	50777
#	67824
#
# Disc length: 1091 seconds
#
# Revision: 0
# Processed by: cddbd v1.5.2PL0 Copyright (c) Steve Scherf et al.
# Submitted via: audiograbber 1.83.01
#
DISCID=33044105
DTITLE=Smoke Fairies - Songs from an Afternoon Session
DYEAR=2010
DGENRE=Blues
TTITLE0=Hotel Room
TTITLE1=Devil In My Mind
TTITLE2=Living With Ghosts
TTITLE3=Storm Song
TTITLE4=Strange Moon Rising
EXTD=Rough Trade bonus disc with "Through Low Light and Trees"
EXTT0=
EXTT1=
EXTT2=
EXTT3=
EXTT4=
PLAYORDER=
